<svg width="1440" height="541" viewBox="0 0 1440 541" fill="none" xmlns="http://www.w3.org/2000/svg">
<g opacity="0.7">
<path fill-rule="evenodd" clip-rule="evenodd" d="M971.416 738.549C956.917 692.393 979.06 571.172 998.659 519.012C1016.87 470.541 1028.26 449.471 1072.34 410.821C1114.62 373.749 1196.67 344.723 1248.35 320.789C1314.59 290.116 1387.17 207.626 1442.85 230.102C1500.13 253.222 1464.55 338.888 1473.03 396.26C1478.66 434.399 1486.39 469.419 1484.12 509.479C1481.28 559.323 1502.11 615.504 1458.18 657.632C1414.3 699.7 1343.87 676.706 1286.39 699.064C1215.65 726.582 1155.06 808.989 1087.5 801.821C1022.07 794.878 988.191 791.95 971.416 738.549Z" fill="url(#paint0_linear_0_1)" fill-opacity="0.3"/>
<path fill-rule="evenodd" clip-rule="evenodd" d="M1078.04 700.17C1058.26 662.995 1049.42 620.489 1059.5 574.567C1068.88 531.89 1097.94 491.462 1132.06 454.219C1164.79 418.498 1207.2 412.513 1250.31 386.8C1305.55 353.847 1364.47 270.894 1417.93 283.711C1472.93 296.895 1453.31 372.685 1469.29 419.933C1479.92 451.34 1491.97 479.903 1495.74 513.783C1500.44 555.939 1527.38 600.844 1493.89 640.989C1460.46 681.079 1393.62 669.432 1345.06 694.451C1285.29 725.246 1242.64 801.021 1180.69 802.348C1120.7 803.632 1100.92 743.181 1078.04 700.17Z" fill="url(#paint1_linear_0_1)" fill-opacity="0.4"/>
<path opacity="0.5" fill-rule="evenodd" clip-rule="evenodd" d="M1160.62 645.153C1154.82 604.037 1160.02 560.123 1182.48 517.097C1203.36 477.112 1240.46 443.772 1280.94 414.712C1319.77 386.84 1363.12 370.981 1407.86 355.315C1465.19 335.239 1535.55 286.166 1577.58 310.832C1620.82 336.204 1581.19 406.548 1580.7 456.744C1580.37 490.111 1582.13 520.996 1575.18 555.261C1566.53 597.897 1576.15 648.247 1535.34 680.313C1494.59 712.335 1440.73 685.814 1391.52 699.57C1330.96 716.499 1271.57 781.647 1218.01 769.024C1166.13 756.798 1167.33 692.724 1160.62 645.153Z" fill="url(#paint2_linear_0_1)" fill-opacity="0.6"/>
</g>
<g opacity="0.8">
<path fill-rule="evenodd" clip-rule="evenodd" d="M76.21 62.958C123.75 71.9324 220.214 148.611 256.972 190.486C291.132 229.401 304.345 249.375 317.648 306.471C330.408 361.235 317.321 447.28 314.062 504.142C309.886 577.013 348.414 679.912 302.342 718.42C254.948 758.032 196.17 686.275 141.579 666.7C105.289 653.688 70.7602 643.994 36.5056 623.1C-6.11627 597.102 -65.4808 588.983 -81.9188 530.375C-98.3333 471.849 -44.8493 420.576 -37.468 359.348C-28.3839 283.988 -72.4886 191.697 -34.3162 135.498C2.6531 81.0705 21.2074 52.575 76.21 62.958Z" fill="url(#paint3_linear_0_1)" fill-opacity="0.3"/>
<path fill-rule="evenodd" clip-rule="evenodd" d="M59.7867 175.082C101.896 175.166 143.55 187.407 179.293 217.953C212.51 246.34 234.462 291.03 251.219 338.678C267.293 384.379 252.576 424.602 254.927 474.743C257.94 539.002 303.318 630.069 266.811 671.173C229.255 713.457 171.664 660.428 122.464 652.245C89.758 646.804 58.8835 643.972 27.2275 631.325C-12.1614 615.588 -64.4639 618.176 -84.0816 569.721C-103.672 521.333 -61.8906 467.883 -61.0591 413.259C-60.0362 346.029 -106.754 272.693 -78.7202 217.44C-51.5701 163.93 11.0671 174.985 59.7867 175.082Z" fill="url(#paint4_linear_0_1)" fill-opacity="0.4"/>
<path opacity="0.4" fill-rule="evenodd" clip-rule="evenodd" d="M69.371 273.849C108.365 288.12 144.644 313.402 171.997 353.5C197.416 390.763 209.325 439.201 215.867 488.604C222.141 535.987 215.688 581.694 208.414 628.531C199.09 688.553 209.195 773.74 167.626 799.178C124.865 825.346 81.5112 757.237 37.4765 733.137C8.20472 717.117 -19.8625 704.11 -46.8031 681.825C-80.325 654.095 -129.264 638.843 -138.303 587.735C-147.329 536.697 -98.5467 501.701 -87.4787 451.822C-73.8563 390.432 -103.309 307.342 -66.9225 266.054C-31.6835 226.07 24.2572 257.336 69.371 273.849Z" fill="url(#paint5_linear_0_1)" fill-opacity="0.6"/>
</g>
<defs>
<linearGradient id="paint0_linear_0_1" x1="1524.32" y1="555.108" x2="1027.63" y2="542.783" gradientUnits="userSpaceOnUse">
<stop stop-color="#9EE6F7" stop-opacity="0"/>
<stop offset="1" stop-color="#9EE6F7" stop-opacity="0.46"/>
</linearGradient>
<linearGradient id="paint1_linear_0_1" x1="1540.16" y1="558.652" x2="1093.77" y2="623.831" gradientUnits="userSpaceOnUse">
<stop stop-color="#9EE6F7" stop-opacity="0"/>
<stop offset="1" stop-color="#9EE6F7" stop-opacity="0.46"/>
</linearGradient>
<linearGradient id="paint2_linear_0_1" x1="1599.82" y1="609.507" x2="1202.62" y2="541.159" gradientUnits="userSpaceOnUse">
<stop stop-color="#005AE2"/>
<stop offset="1" stop-color="#73E6FF" stop-opacity="0.38"/>
</linearGradient>
<linearGradient id="paint3_linear_0_1" x1="-22.6874" y1="637.041" x2="222.351" y2="204.828" gradientUnits="userSpaceOnUse">
<stop stop-color="#9EE6F7" stop-opacity="0"/>
<stop offset="1" stop-color="#9EE6F7" stop-opacity="0.46"/>
</linearGradient>
<linearGradient id="paint4_linear_0_1" x1="-33.2834" y1="649.344" x2="119.695" y2="224.941" gradientUnits="userSpaceOnUse">
<stop stop-color="#9EE6F7" stop-opacity="0"/>
<stop offset="1" stop-color="#9EE6F7" stop-opacity="0.46"/>
</linearGradient>
<linearGradient id="paint5_linear_0_1" x1="-106.255" y1="677.973" x2="141.281" y2="359.916" gradientUnits="userSpaceOnUse">
<stop stop-color="#005AE2"/>
<stop offset="1" stop-color="#73E6FF" stop-opacity="0.38"/>
</linearGradient>
</defs>
</svg>

